<svg xmlns="http://www.w3.org/2000/svg" viewBox="0 0 622.11 101.73"><defs><style>.cls-1{fill:#036269;}.cls-2{fill:#0a676d;}</style></defs><title>Asset 1</title><g id="Layer_2" data-name="Layer 2"><g id="Layer_1-2" data-name="Layer 1"><path class="cls-1" d="M607.41,62.48c.16,2.86-1.23,4.31-2.66,5.74C594.39,78.58,584,88.92,573.68,99.34c-2.39,2.42-4.78,2.88-8.09,2-13.91-3.9-27.89-7.58-41.88-11.2-3.43-.89-5.48-2.65-6.38-6.13-3.68-14.15-7.38-28.29-11.32-42.37a7.32,7.32,0,0,1,2.17-8Q523.8,18.08,539.25,2.43c2.42-2.46,5-2.89,8.15-2C561.17,4.2,575,8,588.78,11.54c3.78,1,5.94,2.78,6.95,6.74,3.57,14,7.47,27.93,11.24,41.88C607.22,61.12,607.34,62.12,607.41,62.48Zm-80.73,5a18.77,18.77,0,0,0,19.89,3.82c4.36-1.9,6.77-5.11,6.93-10S551.34,53,547,51.08c-3.18-1.42-6.53-2.42-9.78-3.69-3-1.17-4.51-3.35-3.94-6.63s3-4.22,5.74-4.65c3.82-.59,7.13.92,10,3,1.52-.76,2.46-1.53,2.66-3.08-4.9-4.29-10.43-5.12-16.35-3.41-4.13,1.19-6.92,3.92-7.4,8.44a9,9,0,0,0,5.43,9.74c3.27,1.57,6.76,2.7,10.15,4,3.6,1.42,5.26,4.09,4.51,7.86-.71,3.56-3.31,5.08-6.81,5.49-4.51.52-8.45-1-12.17-3.45Zm57.13-1.92a12.47,12.47,0,0,1-11.38,2.21c-5-1.55-7.75-7.61-7.58-16,.18-8.66,2.74-13.53,7.93-15.24,4-1.31,7.46.23,11,2.1.83-1.18,2.15-1.72,2.06-3.22-10.15-7.06-22-3-25.43,8.63a28.94,28.94,0,0,0,0,16.73c3.4,11.31,15.34,15.4,25.14,8.66a5.53,5.53,0,0,0,.94-1.28C585.77,67.27,585.59,66,583.81,65.55Z"/><path class="cls-2" d="M0,68a21.37,21.37,0,0,1,5-5.6c4.49,3.38,9.33,5.62,15.17,4.76,3.68-.54,6.3-2.33,6.95-6.07s-1.48-6.34-4.87-7.73c-3.84-1.57-7.86-2.72-11.61-4.47C3.76,45.71,1.07,41,1.83,34.28c.65-5.73,4.74-10.4,11.29-11.78,8.28-1.74,16.17-.88,23.06,5.69l-5,5.68C27.38,31,23.52,29.25,19,29.62c-3.16.26-6,1.11-6.71,4.75s1.46,5.56,4.55,6.74c3.57,1.35,7.23,2.48,10.7,4,8.17,3.67,10.69,8,9.92,16.41C36.88,68,31.94,72.94,24.36,74.71,15.45,76.78,5.84,74.17,0,68Z"/><path class="cls-2" d="M239.32,83.66c9.23-3.35,9.23-3.35,12.07-9.21-1.76-.28-3.11-.9-3.72-2.89-3.69-12.05-7.56-24-11.48-36.43h10.31l8.34,31.59,8.67-31.53a35.11,35.11,0,0,1,10-.06c-3.25,10.12-6.39,20-9.63,29.89A114.93,114.93,0,0,1,259,78.6c-3.6,7.58-10,11.17-18.57,11.49Z"/><path class="cls-2" d="M463,57.6H439.35c-.55,9.94,6.43,12.55,18.19,7.12,1.81,1.19,2.82,3,4,5.23-6.44,5.31-13.63,6.57-21.4,4.24C432.73,72,429.65,66,428.55,58.87a28.7,28.7,0,0,1,.88-12.35c2.52-8.75,8.84-13.1,18.32-12.67,8,.36,13.17,5.26,15,14A33.69,33.69,0,0,1,463,57.6ZM453.3,50.9c.26-4-.32-7.52-3.89-9.36a6.48,6.48,0,0,0-7.52.7,9.12,9.12,0,0,0-3,8.66Z"/><path class="cls-2" d="M328.66,57.59c-.36,10,6.2,12.39,18.66,7l3.79,5.09c-5.83,5.32-12.6,6.42-19.86,5-6.9-1.37-11-6.07-12.7-12.68a29.7,29.7,0,0,1,0-14.36c2.3-9.77,9.22-14.61,19.48-13.76,8.3.68,13.89,7.18,14.43,16.89.12,2.12.49,4.3-.67,6.81Zm13.82-6.74c.14-6.95-1.81-9.79-6.54-10-5.12-.18-7.49,2.87-7.58,10Z"/><path class="cls-2" d="M76.91,57.61H53.77C53.48,67.54,60.2,70,72.15,64.78c1.92,1.08,2.66,3.18,4,4.82-6.27,5.75-15.84,7.46-23.19,3.95-8.26-4-10-11.42-10-19.62a24.63,24.63,0,0,1,2.29-10.64c3.36-7,8.86-10,17.54-9.42,6.89.46,11.72,4.49,13.9,11.62A23.32,23.32,0,0,1,76.91,57.61ZM68,50.84c-.64-7.79-2.91-10.43-8.14-9.93-4.4.42-6.7,4.16-6.06,9.93Z"/><path class="cls-2" d="M310,62.8l4.46,5.84c-10,10.64-27.9,8.42-34.4-4.42-5.34-10.55-5.31-21.61.42-32.06C287,20.31,303.25,18,313.91,27.43l-4.55,5.38c-1.56.15-2.25-1-3.23-1.47-7.68-4.05-15.28-1-17.77,7.32A34.44,34.44,0,0,0,288,56.41c2.33,10.19,10.29,13.5,19.23,8.18C308.06,64.09,308.88,63.54,310,62.8Z"/><path class="cls-2" d="M152.89,73.94h-7.64c-1.62-.84-.29-2.64-1.57-3.59a5.06,5.06,0,0,0-1.16.69c-3.26,3.37-7.27,4.5-11.83,4.09-5.33-.48-9.09-3.78-9.27-9.33-.33-10.12-.1-20.26-.1-30.67h9.31c.88,10.26-.47,20.57.72,30.29,2.29,2.84,4.7,2.93,7.09,1.58,2.63-1.49,4.94-3.3,4.9-6.89-.09-8.29,0-16.58,0-25.06h9.58Z"/><path class="cls-2" d="M369.11,35.08l1.45,3.73c.87-.7,1.62-1.32,2.38-1.92a13.51,13.51,0,0,1,14.5-2c5,2.17,5.79,6.82,5.76,11.72,0,8.95,0,17.89,0,27.13h-9.72c0-8.07.08-16.16,0-24.24-.05-3.48,1-7.87-4.51-8.4-4.1-.39-8,4-8,8.91,0,7.79,0,15.58,0,23.7h-9.4V35.08Z"/><path class="cls-2" d="M232.28,41.91h-7.81c.53,8.42-1,16.62.93,24.25,3.08,1.62,5.28.81,7.66-.08,1.7,1.63,2.41,3.79,3.5,6.13-5.09,3.38-10.3,4-15.69,1.78s-6-7.15-6.08-12.12c-.1-6.46,0-12.93,0-19.65l-5.29-.56c-1.21-2-.7-4.07-.46-6.1,1.59-1.49,3.74,0,5.54-1.5l.41-7.8,9-1.25c1.29,3.06,0,6.13.9,9.16,2.49,1.54,5.47,0,8.46,1.09A13.14,13.14,0,0,1,232.28,41.91Z"/><path class="cls-2" d="M423.29,35a12.8,12.8,0,0,1-1.23,6.73h-7.77c.54,8.5-1,16.72.89,24.16,3.31,2.15,5.67.64,8.23.31l3.15,5.89c-5.26,3.59-10.7,4.21-16.16,1.73-5.18-2.36-5.66-7.36-5.65-12.37,0-6.31,0-12.61,0-18.7-1.87-1.55-3.89-.37-5.73-1.29-1-1.87-.57-4-.33-6,1.69-1.34,3.73-.09,5.49-1.12,1.3-2.37,0-5.16,1-8.12L413.79,25c1.27,3.13-.07,6.37,1,9.69Z"/><path class="cls-2" d="M110.74,64.5l4,5.85c-7.83,6.78-19.48,6.47-26-.45-7.22-7.69-6.74-24.37.91-31.64,6.54-6.22,18.37-6.08,25.05.46l-3.73,5c-.54.05-.93.22-1.17.1-9.67-5-15.43-1.52-15.65,9.34,0,.33,0,.67,0,1C94.13,66.56,99.36,70,110.74,64.5Z"/><path class="cls-2" d="M471.79,35.18a21.7,21.7,0,0,1,8.28,0l.79,5.63c3.66-5.79,7.86-8.31,14.18-6.36l-1.46,8.58c-8.6.34-12.07,3.86-12.21,12.28-.1,6.1,0,12.2,0,18.5h-9.56Z"/><path class="cls-2" d="M173.9,73.89h-9.45V35h7.48c1.38,1.36.77,3.25,1.77,5.07,3.23-4.71,7.24-7.72,13.73-5.59L186.11,43c-9.11.71-12.12,4-12.2,13.24C173.85,62,173.9,67.76,173.9,73.89Z"/><path class="cls-2" d="M193.24,73.82V35.14h9.43V73.82Z"/><path class="cls-2" d="M616.12,12.47c-1.52-.67-1.31-2.6-2.44-3.55-1.51,1.25,0,3.47-2,4.65-2.81-2.51.49-6.09-1.62-8.69-1.28-.63-2.31,0-3.24.82-.76,2.61.4,5.36-1.1,8.27-2.61-2.73-.52-5.73-1.15-7-.76-2.83-3-1.33-3.58-3.36,4.1-2.12,8.52.43,12.76-.92l2.35,4.95c2.39-.93.84-6.06,5.43-4.41.3,3.31,1.13,6.72.07,10.29-2.7-.66-1.5-2.94-2.51-4.23C617.7,9.89,618.25,12.1,616.12,12.47Z"/><path class="cls-2" d="M198.2,26.9c-3.58-.44-6.12-1.91-6.14-5.9s2.09-5.88,5.85-6,6.08,2,6.19,5.71S201.69,26.33,198.2,26.9Z"/></g></g></svg>