<svg xmlns="http://www.w3.org/2000/svg" viewBox="0 0 303.53 62.66" height="62.66" width="303.53"><defs><style>.sc-1-main{fill:#fff;}</style></defs><title>Tenable.sc</title><g id="Layer_2" data-name="Layer 2"><g id="Layer_1-2" data-name="Layer 1"><path class="sc-1-main" d="M89.14,45a11.11,11.11,0,0,1-3.24,1.47,14.14,14.14,0,0,1-3.66.48q-4,0-6.15-2.17T74,38.46V24.85H69.68V20.36H74V14.65l6.64-.73v6.44H87l-.67,4.49H80.63V38.32a4.2,4.2,0,0,0,.7,2.73,2.74,2.74,0,0,0,2.21.83A7.11,7.11,0,0,0,86.81,41Z" /><path class="sc-1-main" d="M113.05,35.19H95.82q.32,3.77,2.08,5.37a6.66,6.66,0,0,0,4.67,1.61,10.39,10.39,0,0,0,3.42-.56,16,16,0,0,0,3.43-1.73l2.75,3.56A16.42,16.42,0,0,1,102,46.9q-6.28,0-9.68-3.61t-3.4-9.85a16.72,16.72,0,0,1,1.45-7.1,11.42,11.42,0,0,1,4.21-4.93,11.73,11.73,0,0,1,6.54-1.78q5.76,0,8.92,3.44t3.17,9.59C113.21,33,113.16,33.83,113.05,35.19Zm-6.43-4.34q0-6.78-5.35-6.78a4.64,4.64,0,0,0-3.81,1.68,9.58,9.58,0,0,0-1.64,5.39h10.8Z" /><path class="sc-1-main" d="M137.59,21.7a7.87,7.87,0,0,1,2,5.79V46.17H133V28.46a4.74,4.74,0,0,0-.86-3.22,3.25,3.25,0,0,0-2.51-.93,5.14,5.14,0,0,0-3.09,1,11.78,11.78,0,0,0-2.68,2.91v18h-6.64V20.36H123l.52,3.37a10.43,10.43,0,0,1,8.36-4.1A7.71,7.71,0,0,1,137.59,21.7Z" /><path class="sc-1-main" d="M166.11,41.56a3.14,3.14,0,0,0,1.58,1.1l-1.4,4.15a8.85,8.85,0,0,1-3.82-1.08,5.52,5.52,0,0,1-2.25-2.68,8.69,8.69,0,0,1-3.51,2.9,11.14,11.14,0,0,1-4.69.95,9.22,9.22,0,0,1-6.49-2.19A7.47,7.47,0,0,1,143.14,39a7.29,7.29,0,0,1,3.24-6.41c2.17-1.48,5.25-2.22,9.27-2.22h3.42V28.85a4.28,4.28,0,0,0-1.22-3.49,6.2,6.2,0,0,0-3.91-1,24.53,24.53,0,0,0-7.27,1.37l-1.56-4.24a29.24,29.24,0,0,1,10-1.86q10.53,0,10.53,8.88V39.34A3.92,3.92,0,0,0,166.11,41.56Zm-7-2.36V34h-2.75q-6.44,0-6.43,4.49a4,4,0,0,0,1,2.88,3.88,3.88,0,0,0,2.91,1A5.92,5.92,0,0,0,159.07,39.2Z" /><path class="sc-1-main" d="M193.11,23.22q2.69,3.59,2.69,10a18,18,0,0,1-1.32,7.1,11.07,11.07,0,0,1-3.76,4.83A9.67,9.67,0,0,1,185,46.9a9.16,9.16,0,0,1-7.27-3.36l-.41,2.63h-5.87V10l6.64-.68v14a9.29,9.29,0,0,1,3.3-2.71,9.7,9.7,0,0,1,4.28-.95A8.84,8.84,0,0,1,193.11,23.22Zm-5.77,16.83q1.51-2.17,1.51-6.81,0-4.88-1.4-6.9a4.54,4.54,0,0,0-3.95-2c-2.11,0-3.92,1.18-5.45,3.52V39.24a6.46,6.46,0,0,0,2.21,2.2,5.56,5.56,0,0,0,2.88.78A4.81,4.81,0,0,0,187.34,40.05Z" /><path class="sc-1-main" d="M201.84,45.17a6.48,6.48,0,0,1-1.8-4.9V10l6.65-.68V40.07c0,1.21.52,1.81,1.56,1.81a5,5,0,0,0,1.55-.25l1.4,4.4a11.27,11.27,0,0,1-4.41.87A6.79,6.79,0,0,1,201.84,45.17Z" /><path class="sc-1-main" d="M235.68,35.19H218.45q.31,3.77,2.08,5.37a6.66,6.66,0,0,0,4.67,1.61,10.39,10.39,0,0,0,3.42-.56,16.23,16.23,0,0,0,3.43-1.73l2.75,3.56a16.44,16.44,0,0,1-10.17,3.46q-6.28,0-9.68-3.61t-3.4-9.85a16.72,16.72,0,0,1,1.45-7.1,11.46,11.46,0,0,1,4.2-4.93,11.77,11.77,0,0,1,6.54-1.78q5.76,0,8.93,3.44t3.17,9.59C235.84,33,235.78,33.83,235.68,35.19Zm-6.44-4.34q0-6.78-5.34-6.78a4.67,4.67,0,0,0-3.82,1.68,9.66,9.66,0,0,0-1.63,5.39h10.79Z" /><path class="sc-1-main" d="M245.2,40.15a3.76,3.76,0,0,1,0,5.58,4.25,4.25,0,0,1-3,1.17,4.08,4.08,0,0,1-2.93-1.17,3.83,3.83,0,0,1,0-5.58,4.09,4.09,0,0,1,3-1.15A4.27,4.27,0,0,1,245.2,40.15Z" /><path class="sc-1-main" d="M270.4,22.7l-2.59,3.66a13.58,13.58,0,0,0-6.91-2.09,5.64,5.64,0,0,0-3.06.7,2.18,2.18,0,0,0-1.09,1.88,2.29,2.29,0,0,0,.47,1.47,4.2,4.2,0,0,0,1.69,1.09,28.89,28.89,0,0,0,3.6,1.15,16.24,16.24,0,0,1,6.62,3,6.43,6.43,0,0,1,2.15,5.17,6.79,6.79,0,0,1-3.32,6,14.73,14.73,0,0,1-8.25,2.17,18.45,18.45,0,0,1-6.15-1,15.14,15.14,0,0,1-4.8-2.69l3.32-3.51a12.77,12.77,0,0,0,7.48,2.54,6.66,6.66,0,0,0,3.55-.83,2.58,2.58,0,0,0,1.32-2.29,2.87,2.87,0,0,0-.49-1.78,4.17,4.17,0,0,0-1.76-1.18,40.88,40.88,0,0,0-4-1.24A13.4,13.4,0,0,1,252,32a6.42,6.42,0,0,1-2-4.81,6.13,6.13,0,0,1,1.32-3.85,8.7,8.7,0,0,1,3.74-2.68,14.67,14.67,0,0,1,5.53-1A16.13,16.13,0,0,1,270.4,22.7Z" /><path class="sc-1-main" d="M291.2,20.36a13.28,13.28,0,0,1,4.07,2.3l-2.95,3.75a11,11,0,0,0-2.7-1.41,8.71,8.71,0,0,0-2.86-.44q-6.18,0-6.17,8.83c0,3,.53,5.15,1.6,6.46a5.57,5.57,0,0,0,4.57,2,7.87,7.87,0,0,0,2.67-.44A17.42,17.42,0,0,0,292.32,40l2.95,4a14.22,14.22,0,0,1-8.87,3,13.72,13.72,0,0,1-6.85-1.63,11,11,0,0,1-4.47-4.66,15.47,15.47,0,0,1-1.55-7.12,16.24,16.24,0,0,1,1.55-7.25,11.48,11.48,0,0,1,4.47-4.88,13,13,0,0,1,6.8-1.73A15.25,15.25,0,0,1,291.2,20.36Z" /><path class="sc-1-main" d="M299.29,17l-.08.59h-1v3.28h-.76V17.61h-1.06V17Z" /><path class="sc-1-main" d="M303.53,20.89h-.74l-.1-1.62q-.06-.87-.06-1.38v-.2l-.72,2.78h-.71l-.77-2.78c0,.24,0,.43,0,.56,0,.34,0,.69,0,1l-.1,1.6h-.73l.31-3.87h1l.7,2.71.66-2.71h1Z" /><path class="sc-1-main" d="M62.57,38.09l-1.41-5.25L56.41,15.11c-.6-2.25-1.24-4.61-1.41-5.26a3.15,3.15,0,0,0-.83-1.37,3.2,3.2,0,0,0-1.37-.82L47.55,6.25,29.82,1.49,24.56.08a3.34,3.34,0,0,0-3,.81L.88,21.57A3.32,3.32,0,0,0,0,24.28H0l.14.57h0l6.09,22.7,1.4,5.25a3.22,3.22,0,0,0,.83,1.38A3.12,3.12,0,0,0,9.85,55l4.51,1.21,18.48,5,4.38,1.17.88.23a3,3,0,0,0,.73.09,3.33,3.33,0,0,0,2.26-.89l3.85-3.85,13-13,3.86-3.85A3.35,3.35,0,0,0,62.57,38.09ZM2.3,23,23,2.28A1.49,1.49,0,0,1,24.05,2L52.3,9.59a1.19,1.19,0,0,1,.47.31,1.14,1.14,0,0,1,.3.47c.18.65.81,3,1.41,5.25l5.6,20.89c.27,1,.48,1.77.57,2.13a1.47,1.47,0,0,1-.29,1l-20.7,20.7a1.46,1.46,0,0,1-1,.26l-.73-.19-4.52-1.21-23-6.16a1.32,1.32,0,0,1-.47-.31,1.26,1.26,0,0,1-.31-.48L8.53,48.38,3.42,29.3l-1.33-5h0L2,24A1.52,1.52,0,0,1,2.3,23Z" /></g></g></svg>
